<svg xmlns="http://www.w3.org/2000/svg" width="900" height="290" style="font-family: -apple-system, BlinkMacSystemFont, 'Segoe UI', Helvetica, Arial, sans-serif;">
  <rect width="100%" height="100%" fill="white"/>
  <g>
    <line x1="40" y1="220.00" x2="860" y2="220.00" stroke="#e5e7eb"/><text x="32" y="224.00" font-size="10" fill="#111827" text-anchor="end">0</text><line x1="40" y1="175.00" x2="860" y2="175.00" stroke="#e5e7eb"/><text x="32" y="179.00" font-size="10" fill="#111827" text-anchor="end">1.2k</text><line x1="40" y1="130.00" x2="860" y2="130.00" stroke="#e5e7eb"/><text x="32" y="134.00" font-size="10" fill="#111827" text-anchor="end">2.5k</text><line x1="40" y1="85.00" x2="860" y2="85.00" stroke="#e5e7eb"/><text x="32" y="89.00" font-size="10" fill="#111827" text-anchor="end">3.8k</text><line x1="40" y1="40.00" x2="860" y2="40.00" stroke="#e5e7eb"/><text x="32" y="44.00" font-size="10" fill="#111827" text-anchor="end">5k</text>
    <line x1="40.00" y1="40" x2="40.00" y2="220" stroke="#e5e7eb" opacity="0.5"/><line x1="108.33" y1="40" x2="108.33" y2="220" stroke="#e5e7eb" opacity="0.5"/><line x1="176.67" y1="40" x2="176.67" y2="220" stroke="#e5e7eb" opacity="0.5"/><line x1="245.00" y1="40" x2="245.00" y2="220" stroke="#e5e7eb" opacity="0.5"/><line x1="313.33" y1="40" x2="313.33" y2="220" stroke="#e5e7eb" opacity="0.5"/><line x1="381.67" y1="40" x2="381.67" y2="220" stroke="#e5e7eb" opacity="0.5"/><line x1="450.00" y1="40" x2="450.00" y2="220" stroke="#e5e7eb" opacity="0.5"/><line x1="518.33" y1="40" x2="518.33" y2="220" stroke="#e5e7eb" opacity="0.5"/><line x1="586.67" y1="40" x2="586.67" y2="220" stroke="#e5e7eb" opacity="0.5"/><line x1="655.00" y1="40" x2="655.00" y2="220" stroke="#e5e7eb" opacity="0.5"/><line x1="723.33" y1="40" x2="723.33" y2="220" stroke="#e5e7eb" opacity="0.5"/><line x1="791.67" y1="40" x2="791.67" y2="220" stroke="#e5e7eb" opacity="0.5"/><line x1="860.00" y1="40" x2="860.00" y2="220" stroke="#e5e7eb" opacity="0.5"/>
    <line x1="40" y1="220" x2="860" y2="220" stroke="#9ca3af"/>
    <line x1="40" y1="40"   x2="40"   y2="220" stroke="#9ca3af"/>
    <path d="M 40.00 138.28 L 57.08 115.78 L 74.17 100.52 L 91.25 100.30 L 108.33 99.58 L 125.42 99.22 L 142.50 96.20 L 159.58 94.83 L 176.67 94.00 L 193.75 92.02 L 210.83 86.40 L 227.92 85.61 L 245.00 85.14 L 262.08 82.59 L 279.17 81.58 L 296.25 78.77 L 313.33 77.48 L 330.42 77.58 L 347.50 77.51 L 364.58 76.83 L 381.67 76.72 L 398.75 76.11 L 415.83 75.50 L 432.92 72.87 L 450.00 72.36 L 467.08 71.97 L 484.17 71.97 L 501.25 71.79 L 518.33 68.40 L 535.42 67.00 L 552.50 66.03 L 569.58 66.03 L 586.67 66.03 L 603.75 65.70 L 620.83 65.70 L 637.92 65.85 L 655.00 65.20 L 672.08 65.06 L 689.17 65.06 L 706.25 64.41 L 723.33 64.59 L 740.42 64.59 L 757.50 64.59 L 774.58 64.41 L 791.67 64.59 L 808.75 64.44 L 825.83 60.70 L 842.92 60.70 L 860.00 60.70" fill="none" stroke="#111827" stroke-width="2"/>
    <circle cx="860.00" cy="60.70" r="3" fill="#111827"/>
    <text x="40.00" y="235.00" font-size="9" fill="#111827" text-anchor="middle" transform="rotate(-45 40.00 235.00)">29.09.2026</text><text x="108.33" y="235.00" font-size="9" fill="#111827" text-anchor="middle" transform="rotate(-45 108.33 235.00)">29.09.2026</text><text x="176.67" y="235.00" font-size="9" fill="#111827" text-anchor="middle" transform="rotate(-45 176.67 235.00)">29.09.2026</text><text x="245.00" y="235.00" font-size="9" fill="#111827" text-anchor="middle" transform="rotate(-45 245.00 235.00)">29.09.2026</text><text x="313.33" y="235.00" font-size="9" fill="#111827" text-anchor="middle" transform="rotate(-45 313.33 235.00)">29.09.2026</text><text x="381.67" y="235.00" font-size="9" fill="#111827" text-anchor="middle" transform="rotate(-45 381.67 235.00)">29.09.2026</text><text x="450.00" y="235.00" font-size="9" fill="#111827" text-anchor="middle" transform="rotate(-45 450.00 235.00)">29.09.2026</text><text x="518.33" y="235.00" font-size="9" fill="#111827" text-anchor="middle" transform="rotate(-45 518.33 235.00)">29.09.2026</text><text x="586.67" y="235.00" font-size="9" fill="#111827" text-anchor="middle" transform="rotate(-45 586.67 235.00)">29.09.2026</text><text x="655.00" y="235.00" font-size="9" fill="#111827" text-anchor="middle" transform="rotate(-45 655.00 235.00)">29.09.2026</text><text x="723.33" y="235.00" font-size="9" fill="#111827" text-anchor="middle" transform="rotate(-45 723.33 235.00)">30.09.2026</text><text x="791.67" y="235.00" font-size="9" fill="#111827" text-anchor="middle" transform="rotate(-45 791.67 235.00)">30.09.2026</text><text x="860.00" y="235.00" font-size="9" fill="#111827" text-anchor="middle" transform="rotate(-45 860.00 235.00)">06.10.2026</text>
  </g>
</svg>